<?xml version="1.0" encoding="utf-8"?>
<!-- Generator: Adobe Illustrator 23.0.1, SVG Export Plug-In . SVG Version: 6.00 Build 0)  -->
<svg version="1.1" id="Layer_1" xmlns="http://www.w3.org/2000/svg" xmlns:xlink="http://www.w3.org/1999/xlink" x="0px" y="0px"
	 viewBox="0 0 1125 2436" style="enable-background:new 0 0 1125 2436;" xml:space="preserve">
<style type="text/css">
	.st0{fill:#FFFFFF;}
	.st1{fill:#DFDFDF;}
	.st2{fill:#EFEFEF;}
</style>
<g>
	<path class="st0" d="M1007.5,2478H117.49C29,2478-43,2406.02-43,2317.55V118.44C-43,29.97,29-42,117.49-42h890.02
		C1096-42,1168,29.97,1168,118.44v2199.11C1168,2406.02,1096,2478,1007.5,2478L1007.5,2478z"/>
	<path class="st1" d="M1012.1,0H112.89C50.8,0,0,50.81,0,112.89v2210.24C0,2385.2,50.8,2436,112.89,2436h899.21
		c62.09,0,112.9-50.8,112.9-112.87V112.89C1125,50.81,1074.2,0,1012.1,0z"/>
	<path class="st2" d="M1012,0.29H893.13c-6.93,0-12.83,4.56-14.89,10.83v15.83c0,34.49-28.21,62.7-62.7,62.7h-505.8
		c-34.49,0-62.7-28.21-62.7-62.7v-11c-0.01-8.62-7.06-15.66-15.67-15.66H113C50.92,0.29,0.13,51.08,0.13,113.15v2209.72
		c0,62.06,50.79,112.85,112.86,112.85h899c62.08,0,112.87-50.79,112.87-112.85V113.15C1124.87,51.08,1074.08,0.29,1012,0.29z"/>
	<g>
		<g>
			<g>
				<path class="st0" d="M680.16,43.16c0,10.79-8.76,19.52-19.56,19.52c-10.8,0-19.55-8.73-19.55-19.52
					c0-10.8,8.75-19.54,19.55-19.54C671.4,23.63,680.16,32.36,680.16,43.16z"/>
			</g>
			<path class="st0" d="M591.39,53.09H454.96c-5.58,0-10.11-4.52-10.11-10.1v-1.6c0-5.57,4.53-10.1,10.11-10.1h136.43
				c5.58,0,10.11,4.53,10.11,10.1v1.6C601.5,48.56,596.96,53.09,591.39,53.09L591.39,53.09z"/>
		</g>
	</g>
</g>
</svg>
